<svg xmlns="http://www.w3.org/2000/svg" viewBox="0 0 32 32" fill="none">
  <defs>
    <linearGradient id="aiGradient" x1="0%" y1="0%" x2="100%" y2="100%">
      <stop offset="0%" style="stop-color:#667eea;stop-opacity:1" />
      <stop offset="100%" style="stop-color:#764ba2;stop-opacity:1" />
    </linearGradient>
  </defs>
  
  <!-- Brain outline -->
  <path d="M16 2C11.5 2 8 5.5 8 10c0 1.5.5 3 1.5 4.2C8.5 15.5 8 17.2 8 19c0 4.5 3.5 8 8 8s8-3.5 8-8c0-1.8-.5-3.5-1.5-4.8C23.5 13 24 11.5 24 10c0-4.5-3.5-8-8-8z" fill="url(#aiGradient)" stroke="#4f46e5" stroke-width="1"/>
  
  <!-- Neural network nodes -->
  <circle cx="12" cy="8" r="1.5" fill="#ffffff" opacity="0.9"/>
  <circle cx="20" cy="8" r="1.5" fill="#ffffff" opacity="0.9"/>
  <circle cx="16" cy="12" r="1.5" fill="#ffffff" opacity="0.9"/>
  <circle cx="10" cy="16" r="1.5" fill="#ffffff" opacity="0.9"/>
  <circle cx="22" cy="16" r="1.5" fill="#ffffff" opacity="0.9"/>
  <circle cx="16" cy="22" r="1.5" fill="#ffffff" opacity="0.9"/>
  
  <!-- Neural connections -->
  <line x1="12" y1="8" x2="16" y2="12" stroke="#ffffff" stroke-width="1" opacity="0.6"/>
  <line x1="20" y1="8" x2="16" y2="12" stroke="#ffffff" stroke-width="1" opacity="0.6"/>
  <line x1="16" y1="12" x2="10" y2="16" stroke="#ffffff" stroke-width="1" opacity="0.6"/>
  <line x1="16" y1="12" x2="22" y2="16" stroke="#ffffff" stroke-width="1" opacity="0.6"/>
  <line x1="10" y1="16" x2="16" y2="22" stroke="#ffffff" stroke-width="1" opacity="0.6"/>
  <line x1="22" y1="16" x2="16" y2="22" stroke="#ffffff" stroke-width="1" opacity="0.6"/>
</svg>